<svg id="testimonailIcon" xmlns="http://www.w3.org/2000/svg" xmlns:xlink="http://www.w3.org/1999/xlink" width="169.1" height="147.572" viewBox="0 0 169.1 147.572">
  <defs>
    <clipPath id="clip-path">
      <rect id="Rectangle_801" data-name="Rectangle 801" width="169.1" height="147.572" fill="none"/>
    </clipPath>
    <clipPath id="clip-path-3">
      <rect id="Rectangle_776" data-name="Rectangle 776" width="150.913" height="75.223" fill="none"/>
    </clipPath>
    <clipPath id="clip-path-4">
      <rect id="Rectangle_777" data-name="Rectangle 777" width="13.551" height="4.781" fill="none"/>
    </clipPath>
    <clipPath id="clip-path-5">
      <rect id="Rectangle_778" data-name="Rectangle 778" width="2.154" height="2.503" fill="none"/>
    </clipPath>
    <clipPath id="clip-path-6">
      <rect id="Rectangle_779" data-name="Rectangle 779" width="1.196" height="2.503" fill="none"/>
    </clipPath>
    <clipPath id="clip-path-7">
      <rect id="Rectangle_780" data-name="Rectangle 780" width="4.818" height="1.83" fill="none"/>
    </clipPath>
    <clipPath id="clip-path-8">
      <rect id="Rectangle_781" data-name="Rectangle 781" width="3.962" height="4.68" fill="none"/>
    </clipPath>
    <clipPath id="clip-path-9">
      <rect id="Rectangle_782" data-name="Rectangle 782" width="1.807" height="6.866" fill="none"/>
    </clipPath>
    <clipPath id="clip-path-10">
      <rect id="Rectangle_783" data-name="Rectangle 783" width="5.264" height="3.036" fill="none"/>
    </clipPath>
    <clipPath id="clip-path-11">
      <rect id="Rectangle_784" data-name="Rectangle 784" width="10.794" height="6.34" fill="none"/>
    </clipPath>
    <clipPath id="clip-path-12">
      <rect id="Rectangle_785" data-name="Rectangle 785" width="7.842" height="8.318" fill="none"/>
    </clipPath>
    <clipPath id="clip-path-13">
      <rect id="Rectangle_786" data-name="Rectangle 786" width="1.707" height="12.486" fill="none"/>
    </clipPath>
    <clipPath id="clip-path-14">
      <rect id="Rectangle_787" data-name="Rectangle 787" width="4.259" height="1.977" fill="none"/>
    </clipPath>
    <clipPath id="clip-path-15">
      <rect id="Rectangle_788" data-name="Rectangle 788" width="2.168" height="2.52" fill="none"/>
    </clipPath>
    <clipPath id="clip-path-16">
      <rect id="Rectangle_789" data-name="Rectangle 789" width="1.095" height="2.442" fill="none"/>
    </clipPath>
    <clipPath id="clip-path-17">
      <rect id="Rectangle_791" data-name="Rectangle 791" width="13.19" height="11.873" fill="none"/>
    </clipPath>
    <clipPath id="clip-path-18">
      <rect id="Rectangle_792" data-name="Rectangle 792" width="2.577" height="1.605" fill="none"/>
    </clipPath>
    <clipPath id="clip-path-19">
      <rect id="Rectangle_793" data-name="Rectangle 793" width="9.789" height="5.322" fill="none"/>
    </clipPath>
    <clipPath id="clip-path-20">
      <rect id="Rectangle_794" data-name="Rectangle 794" width="3.534" height="1.814" fill="none"/>
    </clipPath>
    <clipPath id="clip-path-21">
      <rect id="Rectangle_795" data-name="Rectangle 795" width="7.178" height="23.572" fill="none"/>
    </clipPath>
    <clipPath id="clip-path-22">
      <rect id="Rectangle_796" data-name="Rectangle 796" width="6.01" height="24.528" fill="none"/>
    </clipPath>
    <clipPath id="clip-path-23">
      <rect id="Rectangle_797" data-name="Rectangle 797" width="2.406" height="13.288" fill="none"/>
    </clipPath>
    <clipPath id="clip-path-24">
      <rect id="Rectangle_798" data-name="Rectangle 798" width="1.505" height="2.577" fill="none"/>
    </clipPath>
    <clipPath id="clip-path-25">
      <rect id="Rectangle_799" data-name="Rectangle 799" width="2.216" height="2.574" fill="none"/>
    </clipPath>
  </defs>
  <g id="Group_1634" data-name="Group 1634" clip-path="url(#clip-path)">
    <g id="Group_1633" data-name="Group 1633" transform="translate(0 0)">
      <g id="Group_1632" data-name="Group 1632" clip-path="url(#clip-path)">
        <path id="Path_4089" data-name="Path 4089" d="M293.794,324.265a70.7,70.7,0,0,0,5.832-10.184,55.638,55.638,0,0,0,5.038-27.977c-.966-12.1-7.316-24.1-17.823-27.625-9.319-3.123-17.46,2.983-24.043,10.063-4.921,5.292-9.655,11.067-15.8,14.462-6.544,3.617-15.065,3.545-22.162,2.874-9.6-.908-18.811-4.225-28.393-4.973-9.834-.768-20.958,2.077-27.907,10.734-8.23,10.253-7.155,26.047-1.068,37.322a38.251,38.251,0,0,0,2.129,3.49c7.214,10.5,18.261,16.885,29.375,19.833,24.949,6.617,53.261,5.7,75.891-9.429a70.635,70.635,0,0,0,18.927-18.59" transform="translate(-149.866 -234.131)" fill="#f6f5f5"/>
        <path id="Path_4090" data-name="Path 4090" d="M252.681,385.87A69.51,69.51,0,0,0,260,376.36a56.37,56.37,0,0,0,8.772-28.02c.546-12.658-4.479-26.151-14.879-31.6-9.225-4.831-18.41.071-26.111,6.247-5.757,4.617-11.382,9.764-18.158,12.211-7.218,2.606-16.009,1.063-23.251-.853-9.794-2.591-18.886-7.6-28.684-10.029-10.056-2.487-21.907-1.468-30.187,6.274-9.807,9.169-10.712,25.663-5.865,38.355a42.105,42.105,0,0,0,1.753,3.971c6.109,12.087,16.7,20.584,27.8,25.543,24.919,11.133,54.271,15.063,79.569,3.344A69.214,69.214,0,0,0,252.681,385.87Z" transform="translate(-109.453 -286.062)" fill="none" stroke="#f6f5f5" stroke-miterlimit="10" stroke-width="10"/>
        <g id="Group_1565" data-name="Group 1565" transform="translate(5.741 9.802)" opacity="0.6">
          <g id="Group_1564" data-name="Group 1564">
            <g id="Group_1563" data-name="Group 1563" clip-path="url(#clip-path-3)">
              <path id="Path_4091" data-name="Path 4091" d="M653.811,796.777l.533,0,.479,0h.115s-.027.379-.018.889a1.841,1.841,0,0,0,.226.887,2.146,2.146,0,0,0,.2.469c.037.062.005.158-.051.168-.175.03-.329.063-.465.094-.3.149-.4.272-.479,0a1.515,1.515,0,0,1-.143-.36c-.031-.1-.06-.228-.087-.366a5.38,5.38,0,0,1-.236-.887c-.05-.506-.077-.888-.077-.888" transform="translate(-608.219 -733.868)" fill="#fbc343"/>
              <path id="Path_4092" data-name="Path 4092" d="M641.885,679.2l.248.548.094.208.053.118a7.921,7.921,0,0,1,.665-.439.393.393,0,0,1,.415.037,1.471,1.471,0,0,1,.45-.015.106.106,0,0,0,.1-.132c-.059-.194-.107-.368-.147-.522.054-.2.126-.3-.095-.208a1.031,1.031,0,0,0-.34.024,2.914,2.914,0,0,0-.319.084,1.143,1.143,0,0,0-.42-.046c-.407.189-.709.342-.709.342" transform="translate(-597.23 -626.623)" fill="#9490e6"/>
              <path id="Path_4093" data-name="Path 4093" d="M227.3,893.962l.5.209.731.3.108.045s-.13.348-.262.835a4.249,4.249,0,0,0-.166,1.394,2.363,2.363,0,0,0,.06.524c.018.073-.039.152-.094.139-.173-.041-.327-.071-.463-.1-.494-.049-.69,0-.731-.305a1.658,1.658,0,0,1-.034-.4c0-.111.007-.24.019-.382a12.5,12.5,0,0,1,.157-1.4c.093-.5.173-.872.173-.872" transform="translate(-214.869 -822.19)" fill="#8cbfbe"/>
              <path id="Path_4094" data-name="Path 4094" d="M155.626,650.207l-.328.488-.4.588-.071.105s.267.217.6.551a3.987,3.987,0,0,1,.741,1.362c.018.074.1.106.143.061.127-.142.243-.263.347-.368.342-.269.512-.322.395-.588a1.562,1.562,0,0,0-.152-.361c-.05-.094-.115-.2-.189-.314a6.687,6.687,0,0,0-.549-.886c-.305-.369-.542-.638-.542-.638" transform="translate(-148.417 -600.678)" fill="#708cd5"/>
              <path id="Path_4095" data-name="Path 4095" d="M421.168,315.975l.526.1.372.073.113.022s-.079.368-.14.874a1.294,1.294,0,0,0,.125.743,2.269,2.269,0,0,0,.135.5c.028.068-.016.157-.073.156-.177,0-.333,0-.471,0-.251.1-.35.206-.372-.074a1.6,1.6,0,0,1-.091-.384c-.016-.109-.027-.237-.036-.379a3.8,3.8,0,0,1-.135-.745c.021-.51.046-.892.046-.892" transform="translate(-393.8 -296.944)" fill="#fbc343"/>
              <path id="Path_4096" data-name="Path 4096" d="M340.92,411.614l-.526.1-.372.073-.113.022s.079.368.14.874a1.294,1.294,0,0,1-.125.743,2.266,2.266,0,0,1-.135.5c-.028.068.016.157.073.156.177,0,.333,0,.471,0,.251.1.35.206.372-.074a1.594,1.594,0,0,0,.091-.384c.016-.109.027-.237.036-.379a3.8,3.8,0,0,0,.135-.745c-.021-.51-.046-.892-.046-.892" transform="translate(-318.843 -383.856)" fill="#fbc343"/>
              <path id="Path_4097" data-name="Path 4097" d="M788.492,246.238l-.525.11-.2.041-.113.024s.082.367.148.872a.56.56,0,0,1-.163.44,2.283,2.283,0,0,1-.13.5c-.028.069.018.157.075.155.177-.007.333-.008.471-.006.142.12.2.232.2-.042a1.607,1.607,0,0,0,.088-.385c.015-.109.025-.238.032-.379a1.649,1.649,0,0,0,.172-.442c-.025-.509-.055-.892-.055-.892" transform="translate(-731.417 -233.571)" fill="#fbc343"/>
              <path id="Path_4098" data-name="Path 4098" d="M1038.993,245.614l.533.019.236.008.115,0s-.038.377-.042.888a.655.655,0,0,0,.212.476,2.174,2.174,0,0,0,.189.477c.035.063,0,.158-.056.166-.176.023-.331.049-.468.075-.15.142-.205.263-.236-.009a1.517,1.517,0,0,1-.133-.366c-.028-.105-.053-.231-.077-.37a1.939,1.939,0,0,1-.221-.476c-.035-.508-.052-.891-.052-.891" transform="translate(-963.159 -233.004)" fill="#ee6f57"/>
              <path id="Path_4099" data-name="Path 4099" d="M883.513,350.563l.1-.609.057-.345.021-.131a7.171,7.171,0,0,0,.747.189.64.64,0,0,0,.535-.146,1.545,1.545,0,0,0,.435-.141.1.1,0,0,1,.132.09c-.008.205-.01.387-.01.549.09.242.181.341-.057.345a1.068,1.068,0,0,1-.332.094,2.886,2.886,0,0,1-.326.03,1.867,1.867,0,0,1-.537.157c-.437-.039-.765-.081-.765-.081" transform="translate(-819.886 -327.292)" fill="#8cbfbe"/>
              <path id="Path_4100" data-name="Path 4100" d="M538.67,434.2l-.516-.155-.43-.129-.111-.034s-.059.373-.184.863a1.482,1.482,0,0,1-.4.721,1.971,1.971,0,0,1-.3.394.12.12,0,0,0,.011.177c.163.079.3.155.43.224.232.222.3.369.43.128a1.4,1.4,0,0,0,.22-.307c.053-.092.109-.2.167-.328a4.32,4.32,0,0,0,.412-.718c.163-.474.275-.835.275-.835" transform="translate(-500.295 -404.091)" fill="#8cbfbe"/>
              <path id="Path_4101" data-name="Path 4101" d="M1226.289,306.8l-.178.584-.183.6-.038.126a7.578,7.578,0,0,0-.708-.339,1.108,1.108,0,0,0-.754-.055,1.451,1.451,0,0,0-.445.052.1.1,0,0,1-.118-.116c.035-.2.061-.382.082-.543-.005-.425-.063-.6.184-.6a1.015,1.015,0,0,1,.338-.027,2.869,2.869,0,0,1,.324.036,3.218,3.218,0,0,1,.757.045c.424.128.74.235.74.235" transform="translate(-1133.514 -288.314)" fill="#fbc343"/>
              <path id="Path_4102" data-name="Path 4102" d="M789.931,534.734l-.178.584-.183.6-.039.126a7.56,7.56,0,0,0-.708-.339,1.108,1.108,0,0,0-.754-.055,1.449,1.449,0,0,0-.445.053.1.1,0,0,1-.118-.116c.035-.2.061-.382.082-.542-.005-.425-.063-.6.184-.6a1.017,1.017,0,0,1,.338-.027,2.852,2.852,0,0,1,.324.036,3.212,3.212,0,0,1,.757.045c.424.127.74.235.74.235" transform="translate(-731.417 -495.452)" fill="#ee6f57"/>
              <path id="Path_4103" data-name="Path 4103" d="M1476.338,471.11l-.178.584-.183.6-.038.126a7.587,7.587,0,0,0-.708-.339,1.108,1.108,0,0,0-.754-.055,1.458,1.458,0,0,0-.445.052.1.1,0,0,1-.118-.116c.035-.2.061-.382.082-.542-.005-.425-.063-.6.184-.6a1.02,1.02,0,0,1,.338-.027,2.853,2.853,0,0,1,.324.036,3.212,3.212,0,0,1,.757.045c.424.127.74.235.74.235" transform="translate(-1363.931 -437.634)" fill="#ee6f57"/>
              <path id="Path_4104" data-name="Path 4104" d="M1142.669,511.638l.416-.388.44-.41.09-.084s.173.324.442.727a1.65,1.65,0,0,0,.67.607,1.576,1.576,0,0,0,.4.231.121.121,0,0,1,.046.172c-.122.151-.226.288-.316.412-.2.372-.231.562-.44.409a1.121,1.121,0,0,1-.3-.187,3.4,3.4,0,0,1-.256-.231,4.788,4.788,0,0,1-.677-.6c-.3-.371-.516-.658-.516-.658" transform="translate(-1058.695 -473.952)" fill="#d3d3d3"/>
              <path id="Path_4105" data-name="Path 4105" d="M1123.829,259.17l-.532.043-.324.026-.115.009s.05.375.07.885a1.019,1.019,0,0,1-.188.637,2.2,2.2,0,0,1-.174.485c-.034.065,0,.158.061.163.176.015.332.034.47.054.209.131.288.248.324-.027a1.552,1.552,0,0,0,.121-.372c.024-.106.046-.233.065-.373a2.988,2.988,0,0,0,.2-.638c.02-.509.024-.893.024-.893" transform="translate(-1040.16 -245.323)" fill="#9490e6"/>
              <path id="Path_4106" data-name="Path 4106" d="M1028.994,108.1l.473-.534.034-.039.1-.113s.263.381.659.848c.021.01.083-.017.245-.166a2.053,2.053,0,0,0,.535.236.152.152,0,0,1,.082.208c-.133.2-.246.386-.342.549l-.035.038a1.443,1.443,0,0,1-.4-.195c-.106-.067-.227-.154-.355-.254a1.8,1.8,0,0,1-.254.175c-.429-.424-.743-.753-.743-.753" transform="translate(-953.945 -107.419)" fill="#fbc343"/>
              <path id="Path_4107" data-name="Path 4107" d="M1235.051,177.823l-.271.533-.206.4-.059.115s-.26-.231-.635-.5a.7.7,0,0,0-.575-.116,1.436,1.436,0,0,0-.444-.051.11.11,0,0,1-.1-.141c.068-.191.124-.362.171-.515.02-.329-.023-.485.206-.4a1.012,1.012,0,0,1,.334.052,2.943,2.943,0,0,1,.311.111,2.008,2.008,0,0,1,.579.107c.393.223.684.4.684.4" transform="translate(-1141.714 -170.769)" fill="#708cd5"/>
              <path id="Path_4108" data-name="Path 4108" d="M1722.981,250.4l-.609-.512-.116-.1-.131-.11s-.224.47-.579,1.06c-.049.061-.155.1-.385.01a2.262,2.262,0,0,1-.548.357.173.173,0,0,0-.055.246c.18.2.335.387.47.554-.028.233-.086.4.117.1a1.614,1.614,0,0,0,.407-.287c.105-.093.222-.211.347-.346a1.008,1.008,0,0,0,.4,0c.4-.547.688-.969.688-.969" transform="translate(-1591.182 -236.702)" fill="#ee6f57"/>
              <path id="Path_4109" data-name="Path 4109" d="M1580.663,316.932l.485-.256.248-.13.1-.055s.1.362.279.829a.6.6,0,0,0,.373.357,1.764,1.764,0,0,0,.34.337.124.124,0,0,1,.009.179c-.15.111-.28.214-.394.308-.1.217-.118.359-.248.13a1.254,1.254,0,0,1-.25-.265c-.062-.081-.13-.182-.2-.3a1.732,1.732,0,0,1-.381-.353c-.214-.444-.365-.783-.365-.783" transform="translate(-1462.301 -297.413)" fill="#8cbfbe"/>
              <path id="Path_4110" data-name="Path 4110" d="M1562.519,468.589l-.531-.058-.306-.033-.114-.012s0,.38-.046.888a.888.888,0,0,1-.267.564,2.038,2.038,0,0,1-.234.446.12.12,0,0,0,.039.173c.172.048.323.1.457.141.178.168.238.3.306.032a1.463,1.463,0,0,0,.168-.345c.038-.1.076-.221.113-.356a2.609,2.609,0,0,0,.276-.563c.085-.5.14-.877.14-.877" transform="translate(-1444.181 -435.538)" fill="#fbc343"/>
              <path id="Path_4111" data-name="Path 4111" d="M1431.777,622.482l.511.176.3.1.11.038s-.115.355-.224.85a1,1,0,0,0,.077.648,2.338,2.338,0,0,0,.084.519c.021.072-.032.154-.088.145-.175-.03-.33-.05-.467-.066-.222.077-.318.172-.3-.106a1.646,1.646,0,0,1-.053-.395c-.005-.11,0-.24,0-.382a2.966,2.966,0,0,1-.086-.651c.071-.5.134-.881.134-.881" transform="translate(-1324.981 -575.483)" fill="#8cbfbe"/>
              <path id="Path_4112" data-name="Path 4112" d="M1317.833,699.667l.514-.162.455-.143.111-.035s.052.376.167.868a1.609,1.609,0,0,0,.4.769,1.9,1.9,0,0,0,.293.395.123.123,0,0,1-.014.178c-.163.082-.305.159-.43.23-.251.232-.327.383-.455.143a1.348,1.348,0,0,1-.213-.307c-.051-.092-.105-.2-.161-.33a4.7,4.7,0,0,1-.407-.766c-.153-.477-.259-.839-.259-.839" transform="translate(-1220.106 -645.315)" fill="#fbc343"/>
              <path id="Path_4113" data-name="Path 4113" d="M1913.643,556.569l-.46-.313-.55-.375-.1-.068s-.132.349-.349.792a2.326,2.326,0,0,1-.652.844,1.682,1.682,0,0,1-.367.295.123.123,0,0,0-.025.177c.139.129.259.247.364.354.28.362.352.553.55.374a1.191,1.191,0,0,0,.271-.234c.069-.074.145-.166.226-.271a6.767,6.767,0,0,0,.66-.839c.251-.416.431-.737.431-.737" transform="translate(-1766.806 -514.897)" fill="#ee6f57"/>
              <path id="Path_4114" data-name="Path 4114" d="M1960.451,802.465l.441-.347.6-.474.1-.075s.151.339.391.765a2.854,2.854,0,0,0,.761.913,1.629,1.629,0,0,0,.382.267.123.123,0,0,1,.035.176c-.132.139-.245.266-.344.381-.305.419-.383.628-.6.473a1.16,1.16,0,0,1-.283-.213,3.5,3.5,0,0,1-.24-.254,8.282,8.282,0,0,1-.769-.907c-.273-.4-.47-.7-.47-.7" transform="translate(-1812.27 -738.228)" fill="#fbc343"/>
              <path id="Path_4115" data-name="Path 4115" d="M1812.793,654.231l.43-.367.552-.471.093-.079s.161.332.416.747a2.467,2.467,0,0,0,.751.813,1.6,1.6,0,0,0,.39.25.123.123,0,0,1,.04.174c-.127.145-.236.277-.331.4-.27.414-.333.62-.552.47a1.13,1.13,0,0,1-.29-.2,3.38,3.38,0,0,1-.248-.243,7.168,7.168,0,0,1-.759-.807c-.285-.385-.492-.682-.492-.682" transform="translate(-1676.205 -603.501)" fill="#8cbfbe"/>
              <path id="Path_4116" data-name="Path 4116" d="M559.756,158.9l.628.313.1.05.135.067s-.189.434-.389,1.046c-.014.073.013.189.186.355a3.063,3.063,0,0,0,.043.677c.018.1-.059.191-.13.17-.219-.068-.413-.121-.586-.164-.123.145-.2.28-.1-.051a2.127,2.127,0,0,1-.018-.513c.007-.142.024-.307.049-.487a1.387,1.387,0,0,1-.2-.36c.151-.631.278-1.1.278-1.1" transform="translate(-521.293 -154.206)" fill="#fbc343"/>
              <path id="Path_4117" data-name="Path 4117" d="M618.037,246.238l.591.388.185.122.128.084s-.225.406-.479.986a.6.6,0,0,0,.086.519,3.051,3.051,0,0,0-.018.676c.009.1-.076.182-.143.152-.209-.095-.4-.171-.563-.236-.19.091-.295.2-.185-.123a2.133,2.133,0,0,1,.028-.51c.02-.139.052-.3.092-.476a1.846,1.846,0,0,1-.1-.525c.206-.606.374-1.055.374-1.055" transform="translate(-574.846 -233.571)" fill="#708cd5"/>
              <path id="Path_4118" data-name="Path 4118" d="M1796.1,383.336l.423-.377.194-.173.091-.081s.167.328.429.737a.429.429,0,0,0,.391.19,1.592,1.592,0,0,0,.395.24.122.122,0,0,1,.043.173c-.124.148-.231.283-.323.4-.046.227-.028.365-.194.172a1.126,1.126,0,0,1-.293-.194,3.369,3.369,0,0,1-.252-.237,1.233,1.233,0,0,1-.4-.183c-.292-.378-.5-.67-.5-.67" transform="translate(-1660.822 -357.584)" fill="#708cd5"/>
              <path id="Path_4119" data-name="Path 4119" d="M942.439,175.786l.753.046.118.007.162.01s-.063.532-.083,1.254c.007.089.071.206.3.309a3.094,3.094,0,0,0,.255.681c.049.091,0,.224-.083.233-.249.026-.137.131-.331.162-.082.2-.448.3-.45-.082a2.179,2.179,0,0,1-.178-.523c-.036-.15-.069-.328-.1-.526a1.31,1.31,0,0,1-.316-.31c-.037-.72-.051-1.262-.051-1.262" transform="translate(-874.186 -169.548)" fill="#8cbfbe"/>
              <path id="Path_4120" data-name="Path 4120" d="M1089.457,173.176l-.745-.11-.1-.015-.161-.024s-.014.535-.1,1.248c-.019.078-.1.169-.339.215a2.86,2.86,0,0,1-.347.616.17.17,0,0,0,.048.245c.241.077.35.115.536.186l.2.052a2.019,2.019,0,0,0,.249-.476c.057-.14.115-.308.172-.5a1.157,1.157,0,0,0,.352-.213c.139-.7.23-1.228.23-1.228" transform="translate(-1007.98 -167.04)" fill="#8cbfbe"/>
              <path id="Path_4121" data-name="Path 4121" d="M757.421,368.137l-.2.573-.113.322-.044.124a7.466,7.466,0,0,1,.712.323.784.784,0,0,1,.37.463,1.97,1.97,0,0,1,.3.4.087.087,0,0,0,.153.01c.09-.177.173-.331.249-.465.187-.142.31-.167.113-.322a1.365,1.365,0,0,0-.233-.292c-.071-.073-.159-.152-.258-.235a2.324,2.324,0,0,0-.367-.473c-.383-.248-.677-.425-.677-.425" transform="translate(-703.364 -344.347)" fill="#9490e6"/>
              <path id="Path_4122" data-name="Path 4122" d="M1226.972,413.217l-.2.573-.114.322-.043.124a7.47,7.47,0,0,1,.712.323.783.783,0,0,1,.37.463,1.976,1.976,0,0,1,.3.4.087.087,0,0,0,.152.01c.09-.177.173-.331.249-.465.188-.142.31-.167.113-.322a1.361,1.361,0,0,0-.233-.292c-.071-.073-.159-.152-.258-.235a2.32,2.32,0,0,0-.367-.473c-.383-.248-.677-.425-.677-.425" transform="translate(-1136.048 -385.313)" fill="#ee6f57"/>
              <path id="Path_4123" data-name="Path 4123" d="M242.051,363.144l.5-.224.576-.26.107-.048s.094.363.265.834a2.553,2.553,0,0,0,.567.948,1.863,1.863,0,0,0,.337.352.121.121,0,0,1,.006.178c-.154.1-.288.2-.4.281-.309.3-.4.47-.576.259a1.319,1.319,0,0,1-.247-.276c-.061-.084-.128-.188-.2-.3a7.453,7.453,0,0,1-.575-.944c-.207-.45-.353-.794-.353-.794" transform="translate(-228.788 -339.326)" fill="#708cd5"/>
              <path id="Path_4124" data-name="Path 4124" d="M1704.095,356.478l.4-.4.123-.122.087-.087s.182.317.462.71a.271.271,0,0,0,.321.05,1.553,1.553,0,0,0,.4.215.121.121,0,0,1,.051.17c-.117.156-.217.3-.3.424,0,.191.042.314-.123.121a1.1,1.1,0,0,1-.3-.175,3.353,3.353,0,0,1-.263-.221.8.8,0,0,1-.328-.043c-.309-.359-.534-.638-.534-.638" transform="translate(-1576.041 -333.195)" fill="#fbc343"/>
              <path id="Path_4125" data-name="Path 4125" d="M74.162,776.012l.444.344.795.615.1.074s-.2.3-.422.741a5.63,5.63,0,0,0-.559,1.535,2.4,2.4,0,0,0-.047.528c0,.077-.068.138-.119.109-.159-.088-.3-.161-.429-.222-.56-.256-.793-.289-.794-.616a1.672,1.672,0,0,1,.047-.4c.022-.108.055-.232.1-.367.132-.469.362-1.072.551-1.541s.343-.8.343-.8" transform="translate(-73.126 -715.003)" fill="#fbc343"/>
            </g>
          </g>
        </g>
        <path id="Path_4126" data-name="Path 4126" d="M298.838,469.935c-2.329,2.2-12.086,6.381-12.208,6.474-.473.359-.738.976-1.219,1.346a3.585,3.585,0,0,1-1.795.736c-2.237.239-4.187-1.674-4.944-4.015-.787-2.434-.15-5.836,2.071-6.954a6.355,6.355,0,0,1,3-.8c-1.264-11.573,3.635-13.638,4.426-13.682a3.862,3.862,0,0,1,6.2-.564c1.928-.551,3.559,4.238,1.425,5.612-.016.011-.032.018-.047.029.089,2.686.37,4.655,2.5,5.621,2.33,1.058,2.924,4,.591,6.2" transform="translate(-256.494 -409.981)" fill="#102048"/>
        <path id="Path_4127" data-name="Path 4127" d="M188.342,377.177l-3.06,1.024a7.683,7.683,0,0,1-1.927-3.767c-.187-.639-.928-3.2-.331-3.409.2-.071.567.2.776.622a8.523,8.523,0,0,1-.3-1.9c-.009-.33.065-.558.261-.644.156-.071.329.089.489.341,0-.055.105-.7.32-.789s.466.212.7.752q.047.1.09.22a1.722,1.722,0,0,1,.016-.18.444.444,0,0,1,.241-.342c.4-.178.724.779.831,1.066a31.838,31.838,0,0,1,1.177,3.412c.141.562.343,1.114.455,1.684a12,12,0,0,1,.257,1.913" transform="translate(-168.444 -334.997)" fill="#f9b384"/>
        <path id="Path_4128" data-name="Path 4128" d="M236.419,395.392c.168,1.4.063,2.579-.234,2.627s-.673-1.05-.841-2.453-.279-2.515.234-2.627c.413-.09.673,1.051.841,2.453" transform="translate(-216.737 -357.078)" fill="#f9b384"/>
        <path id="Path_4129" data-name="Path 4129" d="M213.467,458.311l-.54,3.427H209.45l-.493-.741-2.648-3.968a7.743,7.743,0,0,1-1.124-2.712l-1.328-7.074,3.706-1.121,1.661,6.008a7.5,7.5,0,0,0,1.479,2.884Z" transform="translate(-187.851 -405.415)" fill="#f9b384"/>
        <path id="Path_4130" data-name="Path 4130" d="M623.38,334.472l2.821,1.044a11.414,11.414,0,0,0,1.318-4.819c.058-.64.28-3.205-.312-3.251-.2-.016-.49.329-.608.769a8.211,8.211,0,0,0-.071-1.842c-.051-.309-.162-.5-.359-.535-.158-.027-.29.164-.392.438-.01-.051-.225-.622-.441-.655s-.4.312-.515.871q-.025.108-.044.226a1.592,1.592,0,0,0-.047-.164.386.386,0,0,0-.286-.259c-.407-.067-.531.9-.579,1.2a31.775,31.775,0,0,0-.474,3.462c-.029.557-.039,1.115-.039,1.672a12.338,12.338,0,0,0,.031,1.847" transform="translate(-574.39 -295.905)" fill="#f9b384"/>
        <path id="Path_4131" data-name="Path 4131" d="M614.851,358.559c.276,1.312.725,2.311,1,2.232s.278-1.206,0-2.518-.515-2.343-1-2.232c-.393.089-.278,1.206,0,2.518" transform="translate(-566.345 -323.545)" fill="#f9b384"/>
        <path id="Path_4132" data-name="Path 4132" d="M569.524,415.453l1.891-3.37a5.639,5.639,0,0,0,.547-1.381l1.8-8.3,3.822.363-1.618,8.9a5.869,5.869,0,0,1-.285,1.148l-1.828,5.079-2.477,1.266Z" transform="translate(-524.808 -365.687)" fill="#f9b384"/>
        <path id="Path_4133" data-name="Path 4133" d="M461.249,1043.212l-.157,2.351-1.228,18.484-.056.865-3.788-.686v-.869l-.009-18.823a17.236,17.236,0,0,0-.349-3.46c-1.093-5.314-4.35-21.283-4.13-21.692l7.217-.858L461.1,1038.7l.053.464a22.1,22.1,0,0,1,.1,4.051" transform="translate(-416.071 -925.584)" fill="#f9b384"/>
        <path id="Path_4134" data-name="Path 4134" d="M506.715,1513.695c.075,1.042.709,1.029.958,1.029.717,0,7.333.027,7.406,0a2.451,2.451,0,0,0-.521-1.429c-.373-.447-3.578-2.579-3.845-2.774-2.071,1.257-3.848-.692-3.848-.692s-.228,2.759-.15,3.866" transform="translate(-466.915 -1372.057)" fill="#6f3428"/>
        <path id="Path_4135" data-name="Path 4135" d="M227.188,1022.008s-3.09,14.556-6.608,19.984a6.3,6.3,0,0,1-1.366,1.584c-1.024.774-2.333.442-3.9-.759-2.657-2.033-6.046-6.559-10.015-12.359-.176-.252-.349-.507-.524-.766l1.476-3.03,1.969.785,7.908,7.939,3.006-14.421Z" transform="translate(-188.699 -927.801)" fill="#f9b384"/>
        <path id="Path_4136" data-name="Path 4136" d="M146.7,1060.949a.78.78,0,0,0-1.292.2c-.457.643-4.688,6.554-4.716,6.636a1.758,1.758,0,0,0,1.28.443c.534-.05,3.99-1.564,4.289-1.678a3.644,3.644,0,0,1,2.91-3.008,31.38,31.38,0,0,0-2.469-2.6" transform="translate(-129.649 -963.9)" fill="#6f3428"/>
        <path id="Path_4137" data-name="Path 4137" d="M443.722,1062.532c.231-.967.48-1.927.733-2.886s.52-1.912.779-2.868l.819-2.854c.283-.948.567-1.894.873-2.833l.117.044c-.228.969-.478,1.928-.729,2.888l-.784,2.867c-.275.95-.539,1.905-.823,2.852s-.566,1.895-.869,2.834Z" transform="translate(-408.884 -955.179)" fill="#e28b6d"/>
        <path id="Path_4138" data-name="Path 4138" d="M321.3,848.394c-12.961,7.822-20.784-.434-22.76-3.909,2.8-3.573,4.544-8.545,5.449-11.713.525-1.843.766-3.077.766-3.077l10.964-1.018,1.212-.113s.016.069.047.2c.085.383.289,1.285.562,2.5,1.146,5.084,3.521,15.684,3.759,17.126" transform="translate(-275.098 -752.958)" fill="#1f3c88"/>
        <g id="Group_1568" data-name="Group 1568" transform="translate(28.888 75.719)" opacity="0.6">
          <g id="Group_1567" data-name="Group 1567">
            <g id="Group_1566" data-name="Group 1566" clip-path="url(#clip-path-4)">
              <path id="Path_4139" data-name="Path 4139" d="M381.488,832.4c-2.151,1.956-7.286,2.946-13.551,1.5.524-1.843.766-3.077.766-3.077l10.964-1.018,1.259.091c.085.383.289,1.285.562,2.5" transform="translate(-367.937 -829.804)" fill="#102048"/>
            </g>
          </g>
        </g>
        <path id="Path_4140" data-name="Path 4140" d="M302.549,547.809c-.477,1.161-1.718,3.895-3.15,6.705a24.438,24.438,0,0,0-2.224,7c-.653,3.632-1.661,7.771-.688,10.008.835,1.913-2.739,2.387-6.689,2.632-3.144.193-8.376.179-7.431-1.836,1.762-3.749-.163-8.64-.685-10.6-.7-2.621-3.571-6.293-5.282-8.315-.769-.905-1.3-1.482-1.3-1.482a5.8,5.8,0,0,0,4.017-3.427c.672.759,3,3.157,4.287,4.486a2.212,2.212,0,0,0,2.041.664l2.443-.5h2.6c.936.15,1.633.245,2.148.31a2.089,2.089,0,0,0,2.089-1.226l3.492-6.862s2.355,2.661,4.334,2.445" transform="translate(-253.498 -495.6)" fill="#ee6f57"/>
        <path id="Path_4141" data-name="Path 4141" d="M423.486,593.37h-.236a2.392,2.392,0,0,1-2.194-2.55v-4.772h4.623v4.772a2.392,2.392,0,0,1-2.194,2.55" transform="translate(-387.998 -532.571)" fill="#f9b384"/>
        <path id="Path_4142" data-name="Path 4142" d="M421.057,598.952s2.789,4.618,4.623-.462c.067.014-4.623.462-4.623.462" transform="translate(-387.998 -543.878)" fill="#e28b6d"/>
        <path id="Path_4143" data-name="Path 4143" d="M397.9,486.372a16.393,16.393,0,0,1,.038,2.493,5.132,5.132,0,0,1-.361,1.46c-1.209,2.927-4.714,3.132-6.482-.978a13.5,13.5,0,0,1-.807-7.074l3.945-1.989,3.8,2.164a19.067,19.067,0,0,0-.135,3.924" transform="translate(-359.495 -436.458)" fill="#f9b384"/>
        <path id="Path_4144" data-name="Path 4144" d="M385.745,473.909c-3.1.615-4.734-.349-6.2-2.324-.869.827-.646,1.477-.593,2.71.039.917-.158,1.883-2.134,1.883l-.81-3.307.909-2.434,3.957-1.906,4.657.873Z" transform="translate(-346.491 -425.778)" fill="#102048"/>
        <path id="Path_4145" data-name="Path 4145" d="M432.919,543.949c.011.263-.1.484-.256.493s-.286-.2-.3-.461.1-.484.256-.493.286.2.3.461" transform="translate(-398.419 -493.895)" fill="#0c1836"/>
        <path id="Path_4146" data-name="Path 4146" d="M424.015,534.919a.643.643,0,0,0-.717-.187,1.144,1.144,0,0,0-.351.2,2.521,2.521,0,0,0-.314.325l-.085-.059a1.278,1.278,0,0,1,.257-.463.943.943,0,0,1,.426-.287.733.733,0,0,1,.5.019.67.67,0,0,1,.364.385Z" transform="translate(-389.372 -485.651)" fill="#0c1836"/>
        <path id="Path_4147" data-name="Path 4147" d="M464.456,541.031c.011.263.144.47.3.461s.267-.23.256-.493-.145-.47-.3-.461-.267.23-.255.493" transform="translate(-427.989 -491.213)" fill="#0c1836"/>
        <path id="Path_4148" data-name="Path 4148" d="M460.043,532.166a1.079,1.079,0,0,1,.243-.387.681.681,0,0,1,.41-.2.894.894,0,0,1,.745.4l-.058.093c-.123-.049-.233-.114-.347-.148a.861.861,0,0,0-.325-.056.579.579,0,0,0-.3.109,2.219,2.219,0,0,0-.289.255Z" transform="translate(-423.923 -483.073)" fill="#0c1836"/>
        <path id="Path_4149" data-name="Path 4149" d="M445.161,578.464l1.67-.264c-.055.931-1.168,1.443-1.67.264" transform="translate(-410.21 -525.439)" fill="#fff"/>
        <path id="Path_4150" data-name="Path 4150" d="M453.069,546.978a2.572,2.572,0,0,0,.112.6.537.537,0,0,0,.139.2l.112.087.057.045a.553.553,0,0,1,.069.07.619.619,0,0,1-.009.771.427.427,0,0,1-.619.017l.049-.095a.339.339,0,0,0,.419-.095.342.342,0,0,0-.016-.409.513.513,0,0,0-.092-.089l-.117-.1a.676.676,0,0,1-.183-.32,1.708,1.708,0,0,1-.016-.687Z" transform="translate(-417.369 -497.065)" fill="#e28b6d"/>
        <g id="Group_1571" data-name="Group 1571" transform="translate(32.471 50.974)" opacity="0.4">
          <g id="Group_1570" data-name="Group 1570">
            <g id="Group_1569" data-name="Group 1569" clip-path="url(#clip-path-5)">
              <path id="Path_4151" data-name="Path 4151" d="M415.717,559.923a1.155,1.155,0,0,1-1.124,1.195,1.193,1.193,0,0,1-1.028-1.306,1.155,1.155,0,0,1,1.124-1.195,1.193,1.193,0,0,1,1.028,1.306" transform="translate(-413.564 -558.616)" fill="#fc8879"/>
            </g>
          </g>
        </g>
        <g id="Group_1574" data-name="Group 1574" transform="translate(37.278 49.913)" opacity="0.4">
          <g id="Group_1573" data-name="Group 1573">
            <g id="Group_1572" data-name="Group 1572" clip-path="url(#clip-path-6)">
              <path id="Path_4152" data-name="Path 4152" d="M475.961,549.483a.539.539,0,0,1-.132.007,1.194,1.194,0,0,1-1.027-1.307,1.151,1.151,0,0,1,1.121-1.194,16.394,16.394,0,0,1,.038,2.493" transform="translate(-474.801 -546.989)" fill="#fc8879"/>
            </g>
          </g>
        </g>
        <path id="Path_4153" data-name="Path 4153" d="M384.923,548.556c-.648-.623-1.356-.71-1.667.038-.364.877.735,2.849,1.814,2.2a15.4,15.4,0,0,0-.147-2.241" transform="translate(-353.1 -498.051)" fill="#f9b384"/>
        <path id="Path_4154" data-name="Path 4154" d="M388.7,553.771a.973.973,0,0,0-.359-.536.337.337,0,0,0-.5.076l-.053-.035a.391.391,0,0,1,.27-.274.461.461,0,0,1,.362.076.777.777,0,0,1,.249.3.93.93,0,0,1,.093.385Z" transform="translate(-357.344 -502.53)" fill="#e28b6d"/>
        <g id="Group_1577" data-name="Group 1577" transform="translate(33.059 61.561)" opacity="0.4">
          <g id="Group_1576" data-name="Group 1576">
            <g id="Group_1575" data-name="Group 1575" clip-path="url(#clip-path-7)">
              <path id="Path_4155" data-name="Path 4155" d="M421.057,674.872a3.93,3.93,0,0,0,1.206.674,3.6,3.6,0,0,0,1.251.2,3.015,3.015,0,0,0,1.219-.286,4.786,4.786,0,0,0,1.142-.813,2.694,2.694,0,0,1-.909,1.315,2.43,2.43,0,0,1-1.438.515,2.646,2.646,0,0,1-1.453-.4,2.424,2.424,0,0,1-1.018-1.2" transform="translate(-421.057 -674.644)" fill="#6f3428"/>
            </g>
          </g>
        </g>
        <g id="Group_1580" data-name="Group 1580" transform="translate(37.877 71.04)" opacity="0.4">
          <g id="Group_1579" data-name="Group 1579">
            <g id="Group_1578" data-name="Group 1578" clip-path="url(#clip-path-8)">
              <path id="Path_4156" data-name="Path 4156" d="M482.42,783.2c.49-.2.976-.4,1.439-.641a4.593,4.593,0,0,0,1.258-.922,4,4,0,0,0,.828-1.411,11.478,11.478,0,0,0,.436-1.706,6.368,6.368,0,0,1-.206,1.806,3.724,3.724,0,0,1-.844,1.578,3.826,3.826,0,0,1-1.382.919,5.957,5.957,0,0,1-1.529.377" transform="translate(-482.42 -778.52)" fill="#6f3428"/>
            </g>
          </g>
        </g>
        <path id="Path_4157" data-name="Path 4157" d="M225.516,414.078a3.419,3.419,0,0,0-.358,1.194,1.732,1.732,0,0,0,.3,1.148l-.059.082a1.121,1.121,0,0,1-.385-.546,1.8,1.8,0,0,1-.089-.708,2.241,2.241,0,0,1,.516-1.234Z" transform="translate(-207.261 -376.236)" fill="#e28b6d"/>
        <path id="Path_4158" data-name="Path 4158" d="M198.9,408.085a1.815,1.815,0,0,1,.5-.432,3.768,3.768,0,0,1,.56-.286,5.173,5.173,0,0,1,.584-.194,3.5,3.5,0,0,1,.6-.1l.018.1c-.374.168-.756.293-1.126.449-.188.068-.37.154-.551.238a3.055,3.055,0,0,0-.52.3Z" transform="translate(-183.288 -369.924)" fill="#e28b6d"/>
        <path id="Path_4159" data-name="Path 4159" d="M631.691,370.986a2.045,2.045,0,0,1,.761,1.048,1.808,1.808,0,0,1,.063.712,1.229,1.229,0,0,1-.258.639l-.074-.063a1.788,1.788,0,0,0,.049-1.2,3.16,3.16,0,0,0-.6-1.055Z" transform="translate(-582.04 -337.134)" fill="#e28b6d"/>
        <path id="Path_4160" data-name="Path 4160" d="M637.978,365.79a2.865,2.865,0,0,0-.56-.18c-.192-.042-.384-.085-.58-.109-.389-.069-.785-.106-1.18-.187v-.107a3.455,3.455,0,0,1,.607-.033,5.005,5.005,0,0,1,.605.059,3.553,3.553,0,0,1,.6.154,1.672,1.672,0,0,1,.558.313Z" transform="translate(-585.75 -331.85)" fill="#e28b6d"/>
        <g id="Group_1583" data-name="Group 1583" transform="translate(43.42 113.114)" opacity="0.4">
          <g id="Group_1582" data-name="Group 1582">
            <g id="Group_1581" data-name="Group 1581" clip-path="url(#clip-path-9)">
              <path id="Path_4161" data-name="Path 4161" d="M554.787,1244.119l-.157,2.351c-2.459-3.281-1.784-5.413,0-6.866l.053.464a22.1,22.1,0,0,1,.1,4.051" transform="translate(-553.029 -1239.604)" fill="#fc8879"/>
            </g>
          </g>
        </g>
        <g id="Group_1586" data-name="Group 1586" transform="translate(26.618 113.155)" opacity="0.4">
          <g id="Group_1585" data-name="Group 1585">
            <g id="Group_1584" data-name="Group 1584" clip-path="url(#clip-path-10)">
              <path id="Path_4162" data-name="Path 4162" d="M344.281,1241.094a6.294,6.294,0,0,1-1.366,1.584c-1.024.774-2.333.442-3.9-.759,1.73-2.183,3.492-2.427,5.264-.825" transform="translate(-339.017 -1240.058)" fill="#fc8879"/>
            </g>
          </g>
        </g>
        <path id="Path_4163" data-name="Path 4163" d="M1872.708,1385.623a1.631,1.631,0,0,1,.488,1.871c-.339.848-2.651,7.542-4.7,8.082-.369.1-.672-.492-.865-1.446-.143-.687.036-5.553.036-5.968,2.292-1.55,1.782-4.58,1.757-4.72v-.005a33.038,33.038,0,0,1,3.284,2.186" transform="translate(-1720.945 -1257.199)" fill="#ee6f57"/>
        <path id="Path_4164" data-name="Path 4164" d="M1831.316,1359.929l2.589,2.145v.005c.025.14.534,3.17-1.757,4.72l-3.118-3.1Z" transform="translate(-1685.427 -1235.836)" fill="#f9b384"/>
        <path id="Path_4165" data-name="Path 4165" d="M1637.549,1506.761c-.085,1.183-.8,1.167-1.087,1.167-.814,0-8.322.031-8.4,0a2.781,2.781,0,0,1,.591-1.621c.424-.508,4.061-2.926,4.363-3.148,2.35,1.427,4.284-.691,4.372-.79l0,0s.25,3.14.161,4.4" transform="translate(-1500.234 -1365.275)" fill="#ee6f57"/>
        <path id="Path_4166" data-name="Path 4166" d="M1695.707,1459.582l-.181,3.689,0,0c-.089.1-2.022,2.217-4.372.79l.594-4.719Z" transform="translate(-1558.372 -1326.18)" fill="#f9b384"/>
        <path id="Path_4167" data-name="Path 4167" d="M1733.755,1051.764l1.386,15.179a4.673,4.673,0,0,0,.5,1.731l5.423,10.408-4.174,7.134-7.069-11.9Z" transform="translate(-1594.009 -955.791)" fill="#102048"/>
        <path id="Path_4168" data-name="Path 4168" d="M1681.9,894.917a36.012,36.012,0,0,0-1.545,8.643l-2.082,36.142H1671.3l.81-47.359.091-5.289L1682.54,886a9.475,9.475,0,0,1,.361,1.81,18.094,18.094,0,0,1-1,7.1" transform="translate(-1540.077 -805.156)" fill="#1f3c88"/>
        <path id="Path_4169" data-name="Path 4169" d="M1610.979,404.875a2.9,2.9,0,0,1-.645-3.047,1,1,0,0,1,.85-.653,1.891,1.891,0,0,1-.121-2.209,1.656,1.656,0,0,1,.62-.765,2,2,0,0,1,1.565-.077,1.314,1.314,0,0,1,.378-1.142,1.987,1.987,0,0,1,.986-.691,1.606,1.606,0,0,1,1.7.456c.069.095.164.434.266.459.076.019.131-.076.173-.151a1.311,1.311,0,0,1,1.146-.6,1.33,1.33,0,0,1,1.034.36.987.987,0,0,1,.145,1.155,1.7,1.7,0,0,1,1.994.04,1.733,1.733,0,0,1,.338,2.147,1.075,1.075,0,0,1,.892.533,2.709,2.709,0,0,1,.377,1.116,4.733,4.733,0,0,1-1.359,4.108,3.188,3.188,0,0,1-1.9.807,5.978,5.978,0,0,1-1.617-.2,13.363,13.363,0,0,1-2.782-.816,7.328,7.328,0,0,1-1.809-1.186c-.221-.2-.321.868-.615.915a1.867,1.867,0,0,1-1.616-.56" transform="translate(-1483.727 -360.067)" fill="#6f3428"/>
        <path id="Path_4170" data-name="Path 4170" d="M1487.625,641.443l-2.45,3.215a33.229,33.229,0,0,1-4.816-6.137c-.029-.062-.068-.12-.1-.183a8.707,8.707,0,0,1-.5-1.16c0-.011,0-.017,0-.022a.627.627,0,0,1,.148-.6c.194-.187.243-.05.611.334-.34-.833-.568-1.31-.724-1.8-.115-.37-.1-.659.091-.841.154-.146.4-.04.661.178-.017-.062-.1-.834.113-1.03s.6.041,1.032.551q.086.1.171.21a1.986,1.986,0,0,1-.04-.211.587.587,0,0,1,.165-.49c.4-.374,1.066.573,1.278.852a33.809,33.809,0,0,1,2.413,3.36c.337.576.655,1.166.962,1.764a13.987,13.987,0,0,1,.983,2" transform="translate(-1363.543 -575.539)" fill="#e28b6d"/>
        <path id="Path_4171" data-name="Path 4171" d="M1546.462,725.448s6.924,6.936,9.327,6.647,3.088-6.144,3.088-6.144l-9.964-3.718-2.682,1.12Z" transform="translate(-1424.83 -656.329)" fill="#e28b6d"/>
        <path id="Path_4172" data-name="Path 4172" d="M1684.857,510.244v9.778h-4.72V511.2Z" transform="translate(-1548.223 -463.684)" fill="#f9b384"/>
        <path id="Path_4173" data-name="Path 4173" d="M1683.293,549.324a4.081,4.081,0,0,1-3.156,3.11v-2.861Z" transform="translate(-1548.223 -499.198)" fill="#e28b6d"/>
        <path id="Path_4174" data-name="Path 4174" d="M1648.284,440.181c-.876,1.971-2.572,3.5-4.485,2.8a3.292,3.292,0,0,1-1.9-2.478,13.872,13.872,0,0,1-.386-2.442c-.116-1.376-.135-2.949-.173-4.617l3.665-2.8,3.612,2.351s.547,5.216-.33,7.187" transform="translate(-1512.469 -391.348)" fill="#f9b384"/>
        <g id="Group_1589" data-name="Group 1589" transform="translate(132.03 80.848)" opacity="0.6">
          <g id="Group_1588" data-name="Group 1588">
            <g id="Group_1587" data-name="Group 1587" clip-path="url(#clip-path-11)">
              <path id="Path_4175" data-name="Path 4175" d="M1692.411,887.814c-1.721,2.832-6.62,4.391-10.794,4.53l.091-5.289L1692.05,886a9.457,9.457,0,0,1,.361,1.81" transform="translate(-1681.617 -886.004)" fill="#102048"/>
            </g>
          </g>
        </g>
        <path id="Path_4176" data-name="Path 4176" d="M1664.879,617.2c-3.018,1.869-6.959,2.153-11.2,1.883a.908.908,0,0,1-1.021-.975q-.052-2.973-.1-5.942-.061-3.477-.116-6.957-.01-.668-.028-1.336c-.082-2.909-.255-5.851-.179-8.745.079-3,1.382-4.975,3.791-6,1.711-.73,3.86-1.2,5.163.723,2.233,3.292,2.453,7.7,3.222,11.618a128.031,128.031,0,0,1,1.755,12.833,2.8,2.8,0,0,1-1.291,2.9" transform="translate(-1522.498 -534.789)" fill="#708cd5"/>
        <g id="Group_1592" data-name="Group 1592" transform="translate(129.92 69.08)" opacity="0.3">
          <g id="Group_1591" data-name="Group 1591">
            <g id="Group_1590" data-name="Group 1590" clip-path="url(#clip-path-12)">
              <path id="Path_4177" data-name="Path 4177" d="M1662.579,757.493c-.383,2.953-2.038,8.278-7.7,7.844q-.062-3.477-.116-6.957-.01-.668-.028-1.336Z" transform="translate(-1654.737 -757.044)" fill="#1f3c88"/>
            </g>
          </g>
        </g>
        <path id="Path_4178" data-name="Path 4178" d="M1569.713,695.939a12.43,12.43,0,0,1-1.872,4,3.632,3.632,0,0,1-1.3,1.088,3.96,3.96,0,0,1-2.544-.11,27.013,27.013,0,0,1-9.422-5.767l-1-5.336c3.166-.507,7.311,2.887,10.719,4.471Z" transform="translate(-1431.6 -626.822)" fill="#f9b384"/>
        <path id="Path_4179" data-name="Path 4179" d="M1635.94,432.668a1.7,1.7,0,0,0-.116-1.223,1.3,1.3,0,0,0-.876-.694.876.876,0,0,0-.427-.569,2.277,2.277,0,0,0-.647-.212,1.071,1.071,0,0,1-.311-.109,1.927,1.927,0,0,1-.358-.318,1.86,1.86,0,0,0-1.674-.511c-.327.073-.638.237-.967.292a3.2,3.2,0,0,0-1.209.2c-.3.182-.487.544-.744.8-.289.285-.7.5-.76.931a.765.765,0,0,1-.066.321.505.505,0,0,1-.214.142.681.681,0,0,0-.33.369,1.566,1.566,0,0,0,.16,1.263,1.205,1.205,0,0,0,.8.613,1.156,1.156,0,0,0,.634.1,1.345,1.345,0,0,0,1.077-1.15.956.956,0,0,0,.236.61,1.055,1.055,0,0,0,.647.332,1.1,1.1,0,0,0,1.3-.646c-.028.08.349.471.405.533a2.807,2.807,0,0,0,.251.237c.1.084.2.161.3.234.079.051.16.1.242.146a2.148,2.148,0,0,0,1.335.292,2.31,2.31,0,0,0,1.608-1.088,1.4,1.4,0,0,0-.3-.9" transform="translate(-1499.412 -389.85)" fill="#6f3428"/>
        <path id="Path_4180" data-name="Path 4180" d="M1497.874,635.554l-2.259,3.4a32.251,32.251,0,0,1-5.16-5.747c-.033-.06-.075-.115-.108-.175a8.469,8.469,0,0,1-.563-1.119c0-.011,0-.016,0-.022a.635.635,0,0,1,.113-.606c.183-.2.465.143.855.5a9.172,9.172,0,0,1-1.052-1.95.783.783,0,0,1,.042-.846c.146-.158.4-.071.67.125-.021-.061-.149-.824.053-1.037s.6-.005,1.061.469q.092.09.183.2a1.919,1.919,0,0,1-.052-.207.6.6,0,0,1,.136-.5c.377-.4,1.1.488,1.325.75a32.815,32.815,0,0,1,2.6,3.163c.37.548.721,1.113,1.062,1.685a13.623,13.623,0,0,1,1.1,1.922" transform="translate(-1372.642 -570.632)" fill="#f9b384"/>
        <path id="Path_4181" data-name="Path 4181" d="M1552.766,640.3c.607,1.845.828,3.461.5,3.609s-1.095-1.228-1.7-3.073-1.062-3.314-.495-3.609c.456-.237,1.095,1.228,1.7,3.074" transform="translate(-1429.047 -579.056)" fill="#f9b384"/>
        <g id="Group_1595" data-name="Group 1595" transform="translate(138.113 58.428)" opacity="0.3">
          <g id="Group_1594" data-name="Group 1594">
            <g id="Group_1593" data-name="Group 1593" clip-path="url(#clip-path-13)">
              <path id="Path_4182" data-name="Path 4182" d="M1759.09,640.31c1.8,3.711,2.085,9.982,1.286,12.486l-.574-.208Z" transform="translate(-1759.09 -640.31)" fill="#1f3c88"/>
            </g>
          </g>
        </g>
        <path id="Path_4183" data-name="Path 4183" d="M1690.1,639s.109-9.347,3.118-9.983c2.914-.616,3.775,1.653,3.009,13.226-.109,0-6.127-3.243-6.127-3.243" transform="translate(-1557.408 -571.535)" fill="#708cd5"/>
        <path id="Path_4184" data-name="Path 4184" d="M1695.908,741.993c-.526-.23-1.045-.481-1.562-.735s-1.027-.525-1.541-.786-1.018-.548-1.524-.83-1.007-.577-1.5-.891l.051-.13c.528.226,1.046.478,1.563.731s1.028.523,1.539.791,1.019.545,1.522.835,1.007.576,1.5.886Z" transform="translate(-1557.11 -671.221)" fill="#1f3c88"/>
        <path id="Path_4185" data-name="Path 4185" d="M1691.119,634.762c-.142.165-.288.278-.417.425a2.118,2.118,0,0,0-.187.222,2.036,2.036,0,0,0-.168.24,4.862,4.862,0,0,0-.524,1.079,12.442,12.442,0,0,0-.568,2.421c-.057.416-.11.834-.154,1.253s-.073.842-.1,1.265c-.057.846-.077,1.695-.117,2.546l-.123,0c-.021-.427-.03-.854-.045-1.282s.008-.856.011-1.284a23.77,23.77,0,0,1,.218-2.563,11.439,11.439,0,0,1,.633-2.485,4.908,4.908,0,0,1,.6-1.109,4.482,4.482,0,0,1,.849-.83Z" transform="translate(-1556.13 -576.749)" fill="#1f3c88"/>
        <g id="Group_1598" data-name="Group 1598" transform="translate(131.983 72.384)" opacity="0.4">
          <g id="Group_1597" data-name="Group 1597">
            <g id="Group_1596" data-name="Group 1596" clip-path="url(#clip-path-14)">
              <path id="Path_4186" data-name="Path 4186" d="M1685.276,793.985a3.688,3.688,0,0,1-1.3,1.088,4.551,4.551,0,0,1-2.955-.236,2.654,2.654,0,0,1,4.258-.852" transform="translate(-1681.017 -793.253)" fill="#fc8879"/>
            </g>
          </g>
        </g>
        <path id="Path_4187" data-name="Path 4187" d="M1513.766,634.279c.386.376.738.793,1.09,1.209q.259.318.509.644c.164.221.327.442.477.677l-.069.071c-.2-.187-.379-.386-.56-.587s-.355-.411-.528-.62c-.34-.427-.68-.853-.985-1.319Z" transform="translate(-1394.854 -576.401)" fill="#e28b6d"/>
        <path id="Path_4188" data-name="Path 4188" d="M1499.262,640.017c.419.443.8.924,1.186,1.4q.282.366.557.741c.18.253.359.506.524.773l-.069.071c-.212-.219-.411-.452-.609-.686s-.387-.476-.577-.719c-.372-.492-.744-.984-1.081-1.514Z" transform="translate(-1381.486 -581.616)" fill="#e28b6d"/>
        <path id="Path_4189" data-name="Path 4189" d="M1501.812,667.2a6.317,6.317,0,0,1,.687.721q.158.2.308.4a4.406,4.406,0,0,1,.275.433l-.069.071a4.087,4.087,0,0,1-.359-.343q-.167-.184-.326-.376a6.729,6.729,0,0,1-.582-.831Z" transform="translate(-1383.838 -606.32)" fill="#e28b6d"/>
        <path id="Path_4190" data-name="Path 4190" d="M1688.392,497.372c.017.273.159.483.317.469s.272-.246.254-.518-.159-.483-.317-.469-.272.245-.255.518" transform="translate(-1555.828 -451.515)" fill="#2d1510"/>
        <path id="Path_4191" data-name="Path 4191" d="M1684.38,488.744a.731.731,0,0,1,.736-.452.78.78,0,0,1,.41.189,1.094,1.094,0,0,1,.263.379l-.073.066a2.378,2.378,0,0,0-.3-.245.737.737,0,0,0-.319-.119.659.659,0,0,0-.331.042.929.929,0,0,0-.307.2Z" transform="translate(-1552.133 -443.732)" fill="#2d1510"/>
        <path id="Path_4192" data-name="Path 4192" d="M1655.6,498.41c.017.273-.1.5-.255.518s-.3-.2-.317-.469.1-.5.255-.518.3.2.317.469" transform="translate(-1525.081 -452.503)" fill="#2d1510"/>
        <path id="Path_4193" data-name="Path 4193" d="M1649.791,489.316a.933.933,0,0,0-.681-.2.656.656,0,0,0-.313.139,1.94,1.94,0,0,0-.276.289l-.08-.053a1.073,1.073,0,0,1,.228-.424.74.74,0,0,1,.411-.221.8.8,0,0,1,.777.395Z" transform="translate(-1519.016 -444.235)" fill="#2d1510"/>
        <path id="Path_4194" data-name="Path 4194" d="M1665.628,532.749l-1.8-.068c.39.985,1.031,1.274,1.8.068" transform="translate(-1533.194 -484.074)" fill="#fff"/>
        <path id="Path_4195" data-name="Path 4195" d="M1667.276,500.183a1.961,1.961,0,0,1,.036.8.767.767,0,0,1-.187.371,2.313,2.313,0,0,0-.23.255.411.411,0,0,0,.058.532.461.461,0,0,0,.554,0l.046.072a.528.528,0,0,1-.7.091.559.559,0,0,1-.217-.385.689.689,0,0,1,.1-.446,1.975,1.975,0,0,1,.256-.271.65.65,0,0,0,.16-.276,2.516,2.516,0,0,0,.047-.734Z" transform="translate(-1535.781 -454.542)" fill="#e28b6d"/>
        <g id="Group_1601" data-name="Group 1601" transform="translate(132.952 46.623)" opacity="0.4">
          <g id="Group_1600" data-name="Group 1600">
            <g id="Group_1599" data-name="Group 1599" clip-path="url(#clip-path-15)">
              <path id="Path_4196" data-name="Path 4196" d="M1693.375,512.414a1.112,1.112,0,0,0,1.25,1.03,1.254,1.254,0,0,0,.886-1.453,1.112,1.112,0,0,0-1.251-1.03,1.254,1.254,0,0,0-.886,1.453" transform="translate(-1693.359 -510.942)" fill="#fc8879"/>
            </g>
          </g>
        </g>
        <g id="Group_1604" data-name="Group 1604" transform="translate(129.041 46.709)" opacity="0.4">
          <g id="Group_1603" data-name="Group 1603">
            <g id="Group_1602" data-name="Group 1602" clip-path="url(#clip-path-16)">
              <path id="Path_4197" data-name="Path 4197" d="M1643.923,514.325a13.879,13.879,0,0,1-.386-2.442,1.141,1.141,0,0,1,1.08,1.048,1.3,1.3,0,0,1-.694,1.394" transform="translate(-1643.537 -511.883)" fill="#fc8879"/>
            </g>
          </g>
        </g>
        <path id="Path_4198" data-name="Path 4198" d="M1727.055,491.833a1.354,1.354,0,0,1,1.348-.636c.8.136.674,3.725-1.264,3.044-.379,0-.084-2.408-.084-2.408" transform="translate(-1591.356 -446.358)" fill="#f9b384"/>
        <path id="Path_4199" data-name="Path 4199" d="M1736.132,496.877a.81.81,0,0,1,.147-.72.354.354,0,0,1,.355-.1.482.482,0,0,1,.26.239l-.055.063a.565.565,0,0,0-.24-.106.227.227,0,0,0-.193.073,1.021,1.021,0,0,0-.2.545Z" transform="translate(-1599.798 -450.781)" fill="#e28b6d"/>
        <line id="Line_70" data-name="Line 70" x2="169.1" transform="translate(0 142.674)" fill="none" stroke="#102048" stroke-miterlimit="10" stroke-width="4.8"/>
        <path id="Path_4200" data-name="Path 4200" d="M923.338,1459.623l-.865,3.583c.883,2.173,2.96,2.941,4.913.882l.7-3.846Z" transform="translate(-850.046 -1326.433)" fill="#f9b384"/>
        <path id="Path_4201" data-name="Path 4201" d="M902.451,1498.887l-1.666,6.9c-.3,1.488,1.134,3.962,1.784,3.895,1.037.067,3.14-.993,3.438-2.481l1.356-7.433c-2.449,1.689-3.7.752-4.913-.882" transform="translate(-830.024 -1362.114)" fill="#102048"/>
        <path id="Path_4202" data-name="Path 4202" d="M1090.229,1447.112l.2,4.143,0,0c.761,1.842,3.96,3.439,4.91.887l-.667-5.3Z" transform="translate(-1004.631 -1314.822)" fill="#f9b384"/>
        <path id="Path_4203" data-name="Path 4203" d="M1090.26,1500.094c.1,1.328.9,1.311,1.22,1.311.914,0,9.345.034,9.437,0a3.124,3.124,0,0,0-.663-1.821c-.476-.57-4.56-3.286-4.9-3.534-.793,1.236-3.149,1.236-4.91-.887l0,0s-.28,3.526-.181,4.936" transform="translate(-1004.64 -1358.726)" fill="#102048"/>
        <path id="Path_4204" data-name="Path 4204" d="M868.787,790.472c1.1,1.078,4.429,3.284,5.947,2.745s.8-4.608.8-4.608l-4.893-1.667Z" transform="translate(-800.575 -715.134)" fill="#f9b384"/>
        <path id="Path_4205" data-name="Path 4205" d="M975.84,336.746a.376.376,0,0,1-.037.035c-2.193,1.894-3.769-1.667-4.923-1.992s-2.629.937-3.614.153c0,0-.611,4.757-.189,6.326-6.3-2.894-2.868-10.224-1.144-9.389,1.208-4.9,5.342-2.722,7.157-1.937,4.171-2.118,4.9,4.863,2.75,6.8" transform="translate(-887.794 -298.776)" fill="#102048"/>
        <path id="Path_4206" data-name="Path 4206" d="M1374.306,326.655a14.181,14.181,0,0,1,.5-2.64,2.752,2.752,0,0,1,1.124-1.6,10.512,10.512,0,0,1,5.123-1.2c1.094-.051,3.6-.216,4.176.758.543.915-.83,1.554-1.459,1.725-1.208.327-2.575.353-3.607,1.15a3.821,3.821,0,0,0-1.542,3.475l-4.312-1.658" transform="translate(-1266.385 -291.856)" fill="#f9b384"/>
        <path id="Path_4207" data-name="Path 4207" d="M937.976,772.965l-2.587,61.7-6.636.261.225-35.034-6.3,35.426-6.974-.262L921.441,771Z" transform="translate(-843.809 -700.65)" fill="#102048"/>
        <path id="Path_4208" data-name="Path 4208" d="M998.658,574.109a7.183,7.183,0,0,1-.747.5,17.881,17.881,0,0,1-5.738,1.986,20.516,20.516,0,0,1-5.085.3,12.236,12.236,0,0,1-5.471-1.566l.116-1.847,1.57-25.017,11.388-.588Z" transform="translate(-904.546 -497.89)" fill="#fff"/>
        <path id="Path_4209" data-name="Path 4209" d="M1034.143,483.361h0a2.747,2.747,0,0,1-2.517-2.947l-.239-5.959h5.033l.239,6a2.74,2.74,0,0,1-2.516,2.9" transform="translate(-950.409 -431.161)" fill="#f9b384"/>
        <path id="Path_4210" data-name="Path 4210" d="M1032.323,496.676c1.058,1.92,3.44,3.312,5.026-.184Z" transform="translate(-951.271 -451.187)" fill="#e28b6d"/>
        <path id="Path_4211" data-name="Path 4211" d="M1005.074,376.734a4.8,4.8,0,0,1-1.241,3.241c-1.577,1.4-4.683,1.424-6.287-1.566s-1.476-8.238-1.476-8.238l3.838-2.008,3.967.245.716,2.059a36.283,36.283,0,0,1,.487,3.825,17.083,17.083,0,0,1,0,2.442" transform="translate(-917.863 -334.569)" fill="#f9b384"/>
        <rect id="Rectangle_790" data-name="Rectangle 790" width="1.972" height="16.975" transform="translate(112.506 9.483)" fill="#bb9132"/>
        <path id="Path_4212" data-name="Path 4212" d="M1353.923,26.345l.961,6.519-5.037-3.081-5.037,3.081.65-4.391.314-2.128-4.076-4.617,5.631-.953,2.519-5.931,2.519,5.931,1.272.215,4.362.737Z" transform="translate(-1236.355 -13.489)" fill="#fbc343"/>
        <path id="Path_4213" data-name="Path 4213" d="M1392.966,255.006h-9.789l.126-.661.732-3.811a.98.98,0,0,1,.911-.85h6.25a.978.978,0,0,1,.911.85Z" transform="translate(-1274.578 -226.9)" fill="#fbc343"/>
        <g id="Group_1607" data-name="Group 1607" transform="translate(108.454 7.501)" opacity="0.3">
          <g id="Group_1606" data-name="Group 1606">
            <g id="Group_1605" data-name="Group 1605" clip-path="url(#clip-path-17)">
              <path id="Path_4214" data-name="Path 4214" d="M1390.451,87.559l.961,6.519L1386.374,91l-5.037,3.081.65-4.391c4.481-.986,6.922-4.581,8.178-7.482l4.362.737Z" transform="translate(-1381.337 -82.204)" fill="#bb9132"/>
            </g>
          </g>
        </g>
        <g id="Group_1610" data-name="Group 1610" transform="translate(108.636 8.402)" opacity="0.9">
          <g id="Group_1609" data-name="Group 1609">
            <g id="Group_1608" data-name="Group 1608" clip-path="url(#clip-path-18)">
              <path id="Path_4215" data-name="Path 4215" d="M1386.234,92.558c.075.406-.437.879-1.145,1.056s-1.342-.009-1.417-.416.437-.879,1.145-1.056,1.342.009,1.417.416" transform="translate(-1383.665 -92.076)" fill="#fff"/>
            </g>
          </g>
        </g>
        <g id="Group_1613" data-name="Group 1613" transform="translate(108.599 22.783)" opacity="0.3">
          <g id="Group_1612" data-name="Group 1612">
            <g id="Group_1611" data-name="Group 1611" clip-path="url(#clip-path-19)">
              <path id="Path_4216" data-name="Path 4216" d="M1392.966,255.006h-9.789l.126-.661c2.578-.2,5.019-2.522,6.177-4.661h1.715a.978.978,0,0,1,.911.85Z" transform="translate(-1383.177 -249.684)" fill="#bb9132"/>
            </g>
          </g>
        </g>
        <path id="Path_4217" data-name="Path 4217" d="M1373.49,302.568h-11.505a1.027,1.027,0,0,1,0-2.03h11.505a1.027,1.027,0,0,1,0,2.03" transform="translate(-1254.245 -273.114)" fill="#bb9132"/>
        <path id="Path_4218" data-name="Path 4218" d="M1338.106,0a11.627,11.627,0,0,1,1.686,1.527c.261.28.513.57.753.875a8.142,8.142,0,0,1,.674.974l-.167.209a7.184,7.184,0,0,1-.883-.714c-.279-.257-.545-.53-.8-.813A12.6,12.6,0,0,1,1337.939.21Z" transform="translate(-1232.892 -0.001)" fill="#fbc343"/>
        <path id="Path_4219" data-name="Path 4219" d="M1514.6.21a12.594,12.594,0,0,1-1.427,1.849c-.258.283-.524.556-.8.813a7.156,7.156,0,0,1-.883.714l-.167-.209a8.17,8.17,0,0,1,.674-.974c.24-.306.492-.6.753-.875A11.633,11.633,0,0,1,1514.433,0Z" transform="translate(-1392.661 -0.001)" fill="#fbc343"/>
        <path id="Path_4220" data-name="Path 4220" d="M1524.385,38.034a4.051,4.051,0,0,1,1.515-1.116,2.1,2.1,0,0,1,.6-.162l.113.253a2.546,2.546,0,0,1-.458.477,3.842,3.842,0,0,1-.512.357,3.285,3.285,0,0,1-1.144.443Z" transform="translate(-1404.7 -33.402)" fill="#fbc343"/>
        <path id="Path_4221" data-name="Path 4221" d="M1340.4,38.287a3.291,3.291,0,0,1-1.145-.443,3.873,3.873,0,0,1-.511-.357,2.543,2.543,0,0,1-.458-.477l.113-.253a2.107,2.107,0,0,1,.6.162,3.677,3.677,0,0,1,.545.282,3.719,3.719,0,0,1,.969.834Z" transform="translate(-1233.211 -33.402)" fill="#fbc343"/>
        <g id="Group_1616" data-name="Group 1616" transform="translate(82.345 52.771)" opacity="0.3">
          <g id="Group_1615" data-name="Group 1615">
            <g id="Group_1614" data-name="Group 1614" clip-path="url(#clip-path-20)">
              <path id="Path_4222" data-name="Path 4222" d="M1048.8,578.749a4.435,4.435,0,0,0,.934.531,1.734,1.734,0,0,0,.895.108,2.069,2.069,0,0,0,.857-.356,7.5,7.5,0,0,0,.849-.717,2.476,2.476,0,0,1-.543,1.168,1.783,1.783,0,0,1-1.086.63,1.577,1.577,0,0,1-1.19-.32,2.075,2.075,0,0,1-.715-1.043" transform="translate(-1048.796 -578.314)" fill="#1f3c88"/>
            </g>
          </g>
        </g>
        <g id="Group_1619" data-name="Group 1619" transform="translate(86.186 55.137)" opacity="0.3">
          <g id="Group_1618" data-name="Group 1618">
            <g id="Group_1617" data-name="Group 1617" clip-path="url(#clip-path-21)">
              <path id="Path_4223" data-name="Path 4223" d="M1104.9,625.83a17.878,17.878,0,0,1-5.738,1.986c-1.3-4.614-1.894-13.961-1.043-23.572Z" transform="translate(-1097.723 -604.244)" fill="#1f3c88"/>
            </g>
          </g>
        </g>
        <g id="Group_1622" data-name="Group 1622" transform="translate(77.071 54.483)" opacity="0.3">
          <g id="Group_1621" data-name="Group 1621">
            <g id="Group_1620" data-name="Group 1620" clip-path="url(#clip-path-22)">
              <path id="Path_4224" data-name="Path 4224" d="M987.088,621.612a12.236,12.236,0,0,1-5.471-1.566l.116-1.847,4.755-21.115c1.413,8.811,1.385,19.29.6,24.528" transform="translate(-981.617 -597.084)" fill="#1f3c88"/>
            </g>
          </g>
        </g>
        <path id="Path_4225" data-name="Path 4225" d="M1098.361,381.75c4.837-.728,9.6-1.351,14.258-2.006a2.472,2.472,0,0,0,1.877-1.538l4.984-11.554,5.764,1.6L1121,381.121a10.488,10.488,0,0,1-6.312,6.8l-8.136,2.819s-.622,7.5,4.1,22.6c-.169,1.177-4.218,2.68-8.267,2.484-1.912-2.026-2.619-6.387-4.025-34.068" transform="translate(-1012.124 -333.194)" fill="#1f3c88"/>
        <path id="Path_4226" data-name="Path 4226" d="M776.106,539.728a52.168,52.168,0,0,0-10,.977,7.937,7.937,0,0,0-4.792,3.05,102.766,102.766,0,0,0-6.7,10.642,4.143,4.143,0,0,0,.4,4.6l7.077,8.92,4.387-5.392-5.146-6.536,5.793-8.04a1.654,1.654,0,0,1,1.743.131c.225.85.323,10.913-2.882,25.488,1.294,1.177,7.874,1.9,9.336.327.337-.588,3.586-18.8.788-34.171" transform="translate(-694.889 -490.475)" fill="#1f3c88"/>
        <path id="Path_4227" data-name="Path 4227" d="M1038.515,429.878c.027.326-.1.607-.293.628s-.364-.226-.391-.552.1-.607.293-.628.364.226.391.552" transform="translate(-956.344 -390.149)" fill="#0c1836"/>
        <path id="Path_4228" data-name="Path 4228" d="M1027.169,419.882a1.178,1.178,0,0,0-.919-.09,1.536,1.536,0,0,0-.785.594l-.108-.068a1.331,1.331,0,0,1,.3-.561,1.093,1.093,0,0,1,.519-.318,1.073,1.073,0,0,1,.581,0,.839.839,0,0,1,.5.342Z" transform="translate(-944.852 -381.129)" fill="#0c1836"/>
        <path id="Path_4229" data-name="Path 4229" d="M1077.465,424.52c.027.326.2.573.391.552s.32-.3.293-.628-.2-.573-.39-.552-.32.3-.293.628" transform="translate(-992.866 -385.21)" fill="#0c1836"/>
        <path id="Path_4230" data-name="Path 4230" d="M1070.548,412.979a1.116,1.116,0,0,1,.4-.478,1.166,1.166,0,0,1,.55-.214.909.909,0,0,1,.584.131,1.083,1.083,0,0,1,.4.475l-.1.09a1.112,1.112,0,0,0-.866-.334,1.522,1.522,0,0,0-.873.41Z" transform="translate(-986.495 -374.661)" fill="#0c1836"/>
        <path id="Path_4231" data-name="Path 4231" d="M1051.034,465.516l2.646-.524C1053.635,466.478,1051.886,467.361,1051.034,465.516Z" transform="translate(-968.513 -422.562)" fill="#fff"/>
        <path id="Path_4232" data-name="Path 4232" d="M992.581,357.367a.374.374,0,0,1-.037.035c-2.193,1.894-3.769-1.667-4.923-1.992s-2.629.937-3.614.153a10.217,10.217,0,0,0-.189,6.326L981.9,358.63s-.233-3.632-.3-3.632c0-.055,1.984-1.835,1.984-1.835l3.9-1.694,3.985.784.631,2.651Z" transform="translate(-904.535 -319.398)" fill="#102048"/>
        <path id="Path_4233" data-name="Path 4233" d="M987.41,437.268c-1.069,0-1.734.216-1.631,1.529.084,1.076,1.1,3,2.5,1.586Z" transform="translate(-908.372 -397.367)" fill="#f9b384"/>
        <g id="Group_1625" data-name="Group 1625" transform="translate(84.408 89.907)" opacity="0.6">
          <g id="Group_1624" data-name="Group 1624">
            <g id="Group_1623" data-name="Group 1623" clip-path="url(#clip-path-23)">
              <path id="Path_4234" data-name="Path 4234" d="M1075.069,998.548c.158-1.113.323-2.224.5-3.331s.367-2.213.549-3.32l.59-3.311c.207-1.1.415-2.2.646-3.3l.12.028c-.15,1.115-.323,2.224-.5,3.332l-.553,3.319c-.2,1.1-.386,2.209-.594,3.31s-.419,2.2-.642,3.3Z" transform="translate(-1075.069 -985.288)" fill="#708cd5"/>
            </g>
          </g>
        </g>
        <path id="Path_4235" data-name="Path 4235" d="M992.166,445.533a1.839,1.839,0,0,0-.14-.493.446.446,0,0,0-.294-.26.359.359,0,0,0-.347.117,1.055,1.055,0,0,0-.24.416l-.091-.019a.946.946,0,0,1,.188-.57.532.532,0,0,1,.534-.211.64.64,0,0,1,.427.422,1.308,1.308,0,0,1,.055.6Z" transform="translate(-913.243 -403.941)" fill="#e28b6d"/>
        <path id="Path_4236" data-name="Path 4236" d="M1062.177,429.823a2.948,2.948,0,0,0,.182.856.729.729,0,0,0,.237.289,2.234,2.234,0,0,1,.349.26.794.794,0,0,1,.193.5.706.706,0,0,1-.19.506.63.63,0,0,1-.837.056l.041-.1a.56.56,0,0,0,.654-.133.5.5,0,0,0-.023-.642,2.585,2.585,0,0,0-.316-.247.861.861,0,0,1-.285-.394,2.342,2.342,0,0,1-.1-.955Z" transform="translate(-978.689 -390.602)" fill="#e28b6d"/>
        <g id="Group_1628" data-name="Group 1628" transform="translate(85.751 39.653)" opacity="0.4">
          <g id="Group_1627" data-name="Group 1627">
            <g id="Group_1626" data-name="Group 1626" clip-path="url(#clip-path-24)">
              <path id="Path_4237" data-name="Path 4237" d="M1093.637,437.075a.951.951,0,0,1-.352.066,1.3,1.3,0,0,1,0-2.577.911.911,0,0,1,.355.069,17.111,17.111,0,0,1,0,2.442" transform="translate(-1092.177 -434.564)" fill="#fc8879"/>
            </g>
          </g>
        </g>
        <g id="Group_1631" data-name="Group 1631" transform="translate(79.746 40.942)" opacity="0.4">
          <g id="Group_1630" data-name="Group 1630">
            <g id="Group_1629" data-name="Group 1629" clip-path="url(#clip-path-25)">
              <path id="Path_4238" data-name="Path 4238" d="M1017.909,449.963a1.12,1.12,0,1,1-1.108-1.287,1.208,1.208,0,0,1,1.108,1.287" transform="translate(-1015.694 -448.676)" fill="#fc8879"/>
            </g>
          </g>
        </g>
      </g>
    </g>
  </g>
</svg>
